<svg xmlns="http://www.w3.org/2000/svg" xmlns:xlink="http://www.w3.org/1999/xlink" width="915" zoomAndPan="magnify" viewBox="0 0 686.25 284.250005" height="379" preserveAspectRatio="xMidYMid meet" version="1.0"><defs><g/><clipPath id="8724b6d63b"><path d="M 123 214 L 149 214 L 149 239.828125 L 123 239.828125 Z M 123 214 " clip-rule="nonzero"/></clipPath><clipPath id="2b090bf227"><path d="M 81.316406 215 L 107 215 L 107 239.828125 L 81.316406 239.828125 Z M 81.316406 215 " clip-rule="nonzero"/></clipPath></defs><path fill="#de0f3f" d="M 93.75 46.390625 C 104.480469 39.472656 119.199219 39.457031 129.914062 46.40625 C 140.167969 52.539062 146.660156 64.136719 146.839844 76.0625 C 155.378906 76.144531 163.917969 76.011719 172.457031 76.109375 C 177.050781 75.75 181.386719 79.445312 181.648438 84.058594 C 187.4375 124.507812 193.210938 164.976562 198.886719 205.441406 C 200.082031 210.609375 195.582031 215.992188 190.25 215.617188 C 137.941406 215.699219 85.617188 215.683594 33.292969 215.632812 C 27.992188 215.972656 23.527344 210.660156 24.640625 205.507812 C 30.382812 165.058594 36.15625 124.589844 41.964844 84.15625 C 42.257812 79.578125 46.460938 75.78125 51.074219 76.109375 C 59.648438 75.996094 68.214844 76.15625 76.773438 76.09375 C 77 64.152344 83.460938 52.539062 93.75 46.390625 Z M 94.089844 76.027344 C 105.917969 76.15625 117.726562 76.09375 129.550781 76.027344 C 129.078125 66.800781 121.355469 58.363281 111.820312 58.640625 C 102.304688 58.363281 94.550781 66.789062 94.089844 76.027344 Z M 94.089844 76.027344 " fill-opacity="1" fill-rule="nonzero"/><g fill="#ffffff" fill-opacity="1"><g transform="translate(46.40043, 162.197669)"><g><path d="M 31.34375 1.703125 C 38.640625 1.703125 43.859375 -0.734375 48 -6.203125 L 48.234375 -6.203125 L 48.484375 -4.859375 C 49.328125 -1.9375 51.640625 0.734375 56.265625 0.734375 C 61.25 0.734375 64.53125 -3.15625 64.53125 -8.015625 L 64.53125 -84.9375 C 64.53125 -89.671875 61 -93.5625 56.015625 -93.5625 C 50.921875 -93.5625 47.640625 -89.671875 47.640625 -84.9375 L 47.640625 -60.265625 L 47.265625 -60.265625 C 42.78125 -64.40625 38.15625 -66.34375 31.46875 -66.34375 C 14.453125 -66.34375 2.4375 -51.03125 2.4375 -32.328125 C 2.4375 -12.875 14.953125 1.703125 31.34375 1.703125 Z M 33.53125 -14.34375 C 24.796875 -14.34375 19.4375 -21.875 19.4375 -32.328125 C 19.4375 -42.53125 24.796875 -50.3125 33.65625 -50.3125 C 42.171875 -50.3125 47.640625 -42.65625 47.640625 -32.328125 C 47.640625 -21.875 42.28125 -14.34375 33.53125 -14.34375 Z M 33.53125 -14.34375 "/></g></g></g><g fill="#ffffff" fill-opacity="1"><g transform="translate(115.664725, 207.966463)"><g><path d="M 27.234375 0.734375 C 33.234375 0.734375 35.328125 -2.703125 37.046875 -7.84375 L 46.234375 -35.9375 L 46.484375 -35.9375 L 55.5625 -8.21875 C 57.765625 -1.46875 60.46875 0.734375 65.625 0.734375 C 72.25 0.734375 74.453125 -2.703125 76.65625 -8.828125 L 88.5625 -43.046875 C 90.28125 -47.71875 93.09375 -54.953125 93.09375 -57.890625 C 93.09375 -62.3125 89.90625 -65.984375 84.515625 -65.984375 C 80.46875 -65.984375 77.515625 -64.03125 76.171875 -59.609375 L 65.75 -25.265625 L 65.5 -25.265625 L 55.5625 -56.796875 C 53.109375 -64.515625 50.171875 -65.984375 46.359375 -65.984375 C 42.078125 -65.984375 39.375 -63.296875 38.03125 -59.125 L 27.234375 -25.265625 L 26.984375 -25.265625 L 16.3125 -60.34375 C 15.328125 -63.65625 12.390625 -65.984375 8.21875 -65.984375 C 2.828125 -65.984375 -0.375 -62.3125 -0.375 -57.890625 C -0.375 -55.8125 0.375 -53.359375 2.328125 -47.953125 L 16.5625 -7.609375 C 18.28125 -2.578125 21.21875 0.734375 27.234375 0.734375 Z M 27.234375 0.734375 "/></g></g></g><g clip-path="url(#8724b6d63b)"><path fill="#de0f3f" d="M 135.535156 214.691406 C 128.703125 214.769531 123.230469 220.378906 123.308594 227.21875 C 123.386719 234.050781 128.980469 239.523438 135.835938 239.449219 C 142.667969 239.359375 148.140625 233.761719 148.0625 226.929688 C 147.972656 220.089844 142.378906 214.613281 135.535156 214.691406 " fill-opacity="1" fill-rule="nonzero"/></g><g clip-path="url(#2b090bf227)"><path fill="#de0f3f" d="M 93.882812 215.175781 C 87.050781 215.25 81.578125 220.855469 81.648438 227.691406 C 81.726562 234.53125 87.320312 240.015625 94.164062 239.921875 C 101.003906 239.847656 106.464844 234.242188 106.390625 227.410156 C 106.308594 220.578125 100.714844 215.09375 93.882812 215.175781 " fill-opacity="1" fill-rule="nonzero"/></g><g fill="#de0f3f" fill-opacity="1"><g transform="translate(231.454069, 179.600003)"><g><path d="M 29.390625 1.59375 C 36.234375 1.59375 41.125 -0.6875 45 -5.8125 L 45.234375 -5.8125 L 45.453125 -4.5625 C 46.25 -1.828125 48.421875 0.6875 52.75 0.6875 C 57.421875 0.6875 60.5 -2.96875 60.5 -7.515625 L 60.5 -79.625 C 60.5 -84.078125 57.1875 -87.71875 52.515625 -87.71875 C 47.734375 -87.71875 44.65625 -84.078125 44.65625 -79.625 L 44.65625 -56.5 L 44.3125 -56.5 C 40.09375 -60.375 35.765625 -62.203125 29.5 -62.203125 C 13.5625 -62.203125 2.28125 -47.84375 2.28125 -30.296875 C 2.28125 -12.078125 14.015625 1.59375 29.390625 1.59375 Z M 31.4375 -13.4375 C 23.234375 -13.4375 18.234375 -20.5 18.234375 -30.296875 C 18.234375 -39.875 23.234375 -47.15625 31.5625 -47.15625 C 39.53125 -47.15625 44.65625 -39.984375 44.65625 -30.296875 C 44.65625 -20.5 39.640625 -13.4375 31.4375 -13.4375 Z M 31.4375 -13.4375 "/></g></g></g><g fill="#de0f3f" fill-opacity="1"><g transform="translate(296.374926, 179.600003)"><g><path d="M 31.4375 1.59375 C 48.875 1.59375 60.609375 -12.1875 60.609375 -30.296875 C 60.609375 -48.765625 48.53125 -62.203125 31.4375 -62.203125 C 14.125 -62.203125 2.28125 -48.421875 2.28125 -30.296875 C 2.28125 -12.1875 14.015625 1.59375 31.4375 1.59375 Z M 31.4375 -13.4375 C 23.234375 -13.4375 18.234375 -20.5 18.234375 -30.296875 C 18.234375 -40.09375 23.359375 -47.15625 31.328125 -47.15625 C 39.765625 -47.15625 44.65625 -39.984375 44.65625 -30.296875 C 44.65625 -20.5 39.53125 -13.4375 31.4375 -13.4375 Z M 31.4375 -13.4375 "/></g></g></g><g fill="#de0f3f" fill-opacity="1"><g transform="translate(359.245665, 179.600003)"><g><path d="M 25.296875 0.6875 C 30.875 0.6875 32.8125 -2.5 34.40625 -7.296875 L 42.953125 -33.375 L 43.171875 -33.375 L 51.609375 -7.625 C 53.65625 -1.359375 56.15625 0.6875 60.953125 0.6875 C 67.09375 0.6875 69.15625 -2.5 71.203125 -8.203125 L 82.25 -39.984375 C 83.84375 -44.3125 86.46875 -51.03125 86.46875 -53.765625 C 86.46875 -57.875 83.5 -61.296875 78.484375 -61.296875 C 74.734375 -61.296875 72 -59.46875 70.75 -55.359375 L 61.0625 -23.46875 L 60.828125 -23.46875 L 51.609375 -52.75 C 49.328125 -59.921875 46.59375 -61.296875 43.0625 -61.296875 C 39.078125 -61.296875 36.5625 -58.78125 35.3125 -54.90625 L 25.296875 -23.46875 L 25.0625 -23.46875 L 15.15625 -56.046875 C 14.234375 -59.125 11.5 -61.296875 7.625 -61.296875 C 2.625 -61.296875 -0.34375 -57.875 -0.34375 -53.765625 C -0.34375 -51.828125 0.34375 -49.5625 2.171875 -44.546875 L 15.375 -7.0625 C 16.96875 -2.390625 19.703125 0.6875 25.296875 0.6875 Z M 25.296875 0.6875 "/></g></g></g><g fill="#de0f3f" fill-opacity="1"><g transform="translate(445.351237, 179.600003)"><g><path d="M 32.578125 1.59375 C 41.125 1.59375 49.671875 -0.90625 54.796875 -4.671875 C 57.875 -6.828125 59.6875 -9.5625 59.6875 -12.421875 C 59.6875 -16.171875 56.96875 -19.25 52.96875 -19.25 C 51.828125 -19.25 50.359375 -18.6875 48.421875 -17.546875 C 43.75 -14.578125 39.1875 -12.875 34.296875 -12.875 C 25.171875 -12.875 19.703125 -17.765625 19.359375 -24.953125 L 52.859375 -24.953125 C 58.328125 -24.953125 60.609375 -27 60.609375 -32.125 C 60.609375 -47.96875 49.4375 -62.203125 32.359375 -62.203125 C 14.578125 -62.203125 2.28125 -47.390625 2.28125 -30.296875 C 2.28125 -12.296875 14.015625 1.59375 32.578125 1.59375 Z M 19.359375 -36 C 19.703125 -42.71875 25.296875 -48.765625 31.890625 -48.765625 C 38.625 -48.765625 44.3125 -42.71875 44.546875 -36 Z M 19.359375 -36 "/></g></g></g><g fill="#de0f3f" fill-opacity="1"><g transform="translate(507.880283, 179.600003)"><g><path d="M 29.390625 1.59375 C 36.234375 1.59375 41.125 -0.6875 45 -5.8125 L 45.234375 -5.8125 L 45.453125 -4.5625 C 46.25 -1.828125 48.421875 0.6875 52.75 0.6875 C 57.421875 0.6875 60.5 -2.96875 60.5 -7.515625 L 60.5 -53.09375 C 60.5 -57.640625 57.421875 -61.296875 52.75 -61.296875 C 48.421875 -61.296875 46.25 -58.78125 45.453125 -56.046875 L 45.234375 -54.796875 L 45 -54.796875 C 40.890625 -59.921875 36.234375 -62.203125 29.390625 -62.203125 C 14.015625 -62.203125 2.28125 -48.1875 2.28125 -30.296875 C 2.28125 -12.296875 13.90625 1.59375 29.390625 1.59375 Z M 31.4375 -13.4375 C 23.359375 -13.4375 18.234375 -20.5 18.234375 -30.296875 C 18.234375 -39.984375 23.359375 -47.15625 31.328125 -47.15625 C 39.765625 -47.15625 44.65625 -39.984375 44.65625 -30.296875 C 44.65625 -20.5 39.640625 -13.4375 31.4375 -13.4375 Z M 31.4375 -13.4375 "/></g></g></g><g fill="#de0f3f" fill-opacity="1"><g transform="translate(572.801139, 179.600003)"><g><path d="M 12.765625 0.6875 C 17.3125 0.6875 20.625 -2.96875 20.625 -7.515625 L 20.625 -31.4375 C 20.625 -39.078125 22.890625 -43.171875 31.4375 -45.34375 C 40.671875 -47.84375 41.578125 -50.578125 41.578125 -54 C 41.578125 -58.5625 37.9375 -62.203125 33.15625 -62.203125 C 28.59375 -62.203125 24.265625 -59.234375 20.734375 -54.453125 L 20.5 -54.453125 L 20.28125 -56.046875 C 19.484375 -58.78125 17.203125 -61.296875 12.640625 -61.296875 C 8.09375 -61.296875 4.78125 -57.640625 4.78125 -53.09375 L 4.78125 -7.515625 C 4.78125 -2.96875 8.09375 0.6875 12.765625 0.6875 Z M 12.765625 0.6875 "/></g></g></g></svg>